<svg xmlns="http://www.w3.org/2000/svg" viewBox="0 0 67.53 64"><defs><style>.cls-1{fill:#12abdb;}.cls-2{fill:#fff;}.cls-3{fill:#2b0d3d;}</style></defs><title>Asset 2</title><g id="Layer_2" data-name="Layer 2"><g id="Layer_1-2" data-name="Layer 1"><path class="cls-1" d="M6.54,51.94C-4.52,37.52-1.22,17.14,13.93,6.43s36.4-7.73,47.47,6.7,6.53,33.06-8.63,43.78-35.16,9.45-46.23-5"/><path class="cls-2" d="M28.24,42.52c0-4.93-8.55-8.63-8.55-14.83,0-9.58,5-15.07,13.74-15.46C43.1,11.8,48.1,19.4,47,26.39c-1.38,8.89-8.33,11-9,15.13-.48,2.92-9.79,1-9.79,1"/><path class="cls-3" d="M28.07,43.92a48.36,48.36,0,0,0,10.15,1.44,3.68,3.68,0,0,1,0,2.19s-8.83-.5-10.15-1.44a2.32,2.32,0,0,1,0-2.19"/><path class="cls-3" d="M28.4,47.55A45.77,45.77,0,0,0,38.23,49a3.25,3.25,0,0,1-.75,2.14s-7.24-.45-8.48-1.39c0,0-1.19-1-.6-2.18"/><path class="cls-3" d="M30.81,51.52a21.71,21.71,0,0,0,5.46.39,2.22,2.22,0,0,1-2.41,1.54c-2-.14-3-.54-3.05-1.93"/><path class="cls-1" d="M40,26.61a.85.85,0,0,0-.71-.63c-.64-.07-1.29.62-1.57,1.07a9.48,9.48,0,0,0-1,3c-.06.25-.11.51-.15.77a2.77,2.77,0,0,1-2.78-.66,5.39,5.39,0,0,0,.72-2.45,3.13,3.13,0,0,0-.6-2.22,1.1,1.1,0,0,0-.87-.34,1,1,0,0,0-.73.35,4.16,4.16,0,0,0-.5,2.59,4.74,4.74,0,0,0,.68,2.11,2.48,2.48,0,0,1-.71.53,2.68,2.68,0,0,1-2.05.1c-.06-.29-.11-.59-.18-.88a8.71,8.71,0,0,0-1.11-3.06c-.28-.4-.91-1-1.51-.86-.25,0-.57.22-.72.79a4.83,4.83,0,0,0,2.6,4.78l2,11.8h1L30.07,33.16c-.06-.33-.12-.67-.17-1l0-.18a3.44,3.44,0,0,0,3.22-1,3.69,3.69,0,0,0,3.23,1l0,.24c-.06.4-.12.8-.19,1.2l-1.72,10h1l1.72-10c.06-.36.12-.71.17-1.07l.12-.73a4.79,4.79,0,0,0,1.86-1.66,4.25,4.25,0,0,0,.7-3.33m-2.29,3.55h0c.22-1,.52-2.36,1.24-2.95a.49.49,0,0,1,.12-.08,2.8,2.8,0,0,1-.07.93,3.73,3.73,0,0,1-.85,1.68,3.57,3.57,0,0,1-.44.43m-4.58-1a4.29,4.29,0,0,1-.25-.74,3.51,3.51,0,0,1,.09-2.08.32.32,0,0,1,.15-.17h0l.06,0a1.75,1.75,0,0,1,.26.93,4,4,0,0,1-.33,2m-6-2.07a1.88,1.88,0,0,1,.56.59,8.33,8.33,0,0,1,.66,1.81c.05.2.1.4.14.61a3.84,3.84,0,0,1-1.37-2.84.72.72,0,0,1,0-.17"/></g></g></svg>